<svg width="20" height="20" viewBox="0 0 20 20" fill="none" xmlns="http://www.w3.org/2000/svg">
<path fill-rule="evenodd" clip-rule="evenodd" d="M15.625 11.25C15.625 14.7018 12.8268 17.5 9.375 17.5C5.92322 17.5 3.125 14.7018 3.125 11.25C3.125 7.79822 5.92322 5 9.375 5H13.2375L11 7.24375L11.875 8.125L15.625 4.375L11.875 0.625L11 1.50625L13.2437 3.75H9.375C5.23286 3.75 1.875 7.10786 1.875 11.25C1.875 15.3921 5.23286 18.75 9.375 18.75C13.5171 18.75 16.875 15.3921 16.875 11.25H15.625Z" fill="#49B8B8"/>
<mask id="restart" mask-type="alpha" maskUnits="userSpaceOnUse" x="1" y="0" width="16" height="19">
<path fill-rule="evenodd" clip-rule="evenodd" d="M15.625 11.25C15.625 14.7018 12.8268 17.5 9.375 17.5C5.92322 17.5 3.125 14.7018 3.125 11.25C3.125 7.79822 5.92322 5 9.375 5H13.2375L11 7.24375L11.875 8.125L15.625 4.375L11.875 0.625L11 1.50625L13.2437 3.75H9.375C5.23286 3.75 1.875 7.10786 1.875 11.25C1.875 15.3921 5.23286 18.75 9.375 18.75C13.5171 18.75 16.875 15.3921 16.875 11.25H15.625Z" fill="white"/>
</mask>
<g mask="url(#restart)">
</g>
</svg>
